<svg height="800px" width="800px" version="1.1" id="Layer_1" xmlns="http://www.w3.org/2000/svg" xmlns:xlink="http://www.w3.org/1999/xlink" viewBox="0 0 511.978 511.978" xml:space="preserve">
  <path style="fill:#CCD1D9;" d="M501.306,117.323h-53.325c-5.891,0-10.671,4.78-10.671,10.671v127.995
	c0,5.89,4.78,10.671,10.671,10.671h53.325c5.891,0,10.672-4.781,10.672-10.671V127.994
	C511.978,122.103,507.197,117.323,501.306,117.323z" />
  <path style="fill:#5D9CEC;" d="M437.31,191.992v63.997c0,5.89,4.78,10.671,10.671,10.671h53.325c5.891,0,10.672-4.781,10.672-10.671
	v-63.997L437.31,191.992L437.31,191.992z" />
  <path style="fill:#434A54;" d="M426.654,287.987c-2.733,0-5.468-1.047-7.546-3.125c-4.172-4.171-4.172-10.921,0-15.077
	l21.326-21.343c4.172-4.156,10.922-4.156,15.094,0c4.156,4.172,4.156,10.922,0,15.093l-21.343,21.327
	C432.107,286.94,429.373,287.987,426.654,287.987z" />
  <g>
    <path style="fill:#CCD1D9;" d="M95.995,330.657c-5.89,0-10.671-4.781-10.671-10.671V85.324c0-5.891,4.781-10.655,10.671-10.655
		c5.891,0,10.672,4.765,10.672,10.655v234.662C106.667,325.876,101.886,330.657,95.995,330.657z" />
    <path style="fill:#CCD1D9;" d="M234.662,330.657c-5.891,0-10.672-4.781-10.672-10.671V85.324c0-5.891,4.781-10.655,10.672-10.655
		c5.89,0,10.656,4.765,10.656,10.655v234.662C245.318,325.876,240.552,330.657,234.662,330.657z" />
    <path style="fill:#CCD1D9;" d="M373.312,330.657c-5.89,0-10.655-4.781-10.655-10.671V85.324c0-5.891,4.766-10.655,10.655-10.655
		c5.891,0,10.671,4.765,10.671,10.655v234.662C383.983,325.876,379.203,330.657,373.312,330.657z" />
  </g>
  <path style="fill:#EC5564;" d="M456.231,313.221c-2.031-2.469-5.062-3.906-8.25-3.906H21.327c-3.188,0-6.219,1.438-8.25,3.906
	c-2.016,2.469-2.828,5.719-2.203,8.857l21.328,106.669c1,4.983,5.375,8.562,10.468,8.562h383.984c5.078,0,9.453-3.578,10.453-8.562
	l21.327-106.669C459.075,318.94,458.262,315.69,456.231,313.221z" />
  <path style="fill:#E6E9ED;" d="M447.981,330.657H21.327c-5.891,0-10.656-4.781-10.656-10.671V85.324
	c0-5.891,4.766-10.655,10.656-10.655h426.654c5.891,0,10.672,4.765,10.672,10.655v234.662
	C458.653,325.876,453.872,330.657,447.981,330.657z M31.998,309.315H437.31V95.995H31.998V309.315z" />
  <path style="fill:#FFCE54;" d="M234.662,309.315c-47.061,0-85.34-38.28-85.34-85.325s38.279-85.324,85.34-85.324
	c47.045,0,85.325,38.279,85.325,85.324S281.707,309.315,234.662,309.315z M234.662,159.993c-35.295,0-63.998,28.702-63.998,63.997
	c0,35.296,28.702,63.997,63.998,63.997c35.279,0,63.998-28.701,63.998-63.997C298.66,188.695,269.941,159.993,234.662,159.993z" />
  <g>
    <path style="fill:#434A54;" d="M319.987,330.657c-2.938,0-5.859-1.219-7.969-3.578l-85.341-95.995
		c-3.905-4.406-3.515-11.156,0.891-15.062c4.406-3.922,11.14-3.516,15.062,0.875l85.325,95.996
		c3.921,4.406,3.515,11.154-0.875,15.061C325.049,329.766,322.518,330.657,319.987,330.657z" />
    <path style="fill:#434A54;" d="M149.322,330.657c-2.516,0-5.047-0.891-7.078-2.703c-4.406-3.906-4.797-10.654-0.891-15.061
		l85.324-95.996c3.922-4.391,10.656-4.797,15.062-0.875c4.406,3.905,4.797,10.655,0.891,15.062l-85.325,95.995
		C155.196,329.438,152.259,330.657,149.322,330.657z" />
  </g>
  <path style="fill:#E6E9ED;" d="M447.981,213.319H21.327c-5.891,0-10.656-4.766-10.656-10.656s4.766-10.671,10.656-10.671h426.654
	c5.891,0,10.672,4.781,10.672,10.671S453.872,213.319,447.981,213.319z" />
  <g>
    <polygon style="fill:#DA4453;" points="441.794,405.31 446.059,383.983 23.248,383.983 27.514,405.31 	" />
    <path style="fill:#DA4453;" d="M405.311,415.982c-5.891,0-10.656,4.781-10.656,10.672v10.655h21.328v-10.655
		C415.983,420.763,411.202,415.982,405.311,415.982z" />
    <path style="fill:#DA4453;" d="M362.657,415.982c-5.891,0-10.672,4.781-10.672,10.672v10.655h21.327v-10.655
		C373.312,420.763,368.547,415.982,362.657,415.982z" />
    <path style="fill:#DA4453;" d="M319.987,415.982c-5.891,0-10.671,4.781-10.671,10.672v10.655h21.341v-10.655
		C330.657,420.763,325.877,415.982,319.987,415.982z" />
    <path style="fill:#DA4453;" d="M277.316,415.982c-5.891,0-10.655,4.781-10.655,10.672v10.655h21.327v-10.655
		C287.988,420.763,283.207,415.982,277.316,415.982z" />
    <path style="fill:#DA4453;" d="M234.662,415.982c-5.891,0-10.672,4.781-10.672,10.672v10.655h21.328v-10.655
		C245.318,420.763,240.552,415.982,234.662,415.982z" />
    <path style="fill:#DA4453;" d="M191.992,415.982c-5.891,0-10.672,4.781-10.672,10.672v10.655h21.343v-10.655
		C202.663,420.763,197.882,415.982,191.992,415.982z" />
    <path style="fill:#DA4453;" d="M149.322,415.982c-5.891,0-10.656,4.781-10.656,10.672v10.655h21.327v-10.655
		C159.993,420.763,155.212,415.982,149.322,415.982z" />
    <path style="fill:#DA4453;" d="M106.667,415.982c-5.891,0-10.672,4.781-10.672,10.672v10.655h21.328v-10.655
		C117.323,420.763,112.557,415.982,106.667,415.982z" />
    <path style="fill:#DA4453;" d="M63.997,415.982c-5.891,0-10.672,4.781-10.672,10.672v10.655h21.344v-10.655
		C74.669,420.763,69.887,415.982,63.997,415.982z" />
  </g>
  <path style="fill:#E6E9ED;" d="M63.997,245.317h-42.67c-5.891,0-10.656,4.781-10.656,10.672v63.997
	c0,5.89,4.766,10.671,10.656,10.671h42.67c5.89,0,10.671-4.781,10.671-10.671v-63.997C74.669,250.098,69.887,245.317,63.997,245.317
	z M53.325,309.315H31.998V266.66h21.327V309.315z" />
  <path style="fill:#DA4453;" d="M458.653,330.657H10.671C4.781,330.657,0,325.876,0,319.986s4.781-10.671,10.671-10.671h447.982
	c5.89,0,10.655,4.781,10.655,10.671S464.543,330.657,458.653,330.657z" />
</svg>